<svg width="602" height="160" viewBox="0 0 602 160" fill="none" xmlns="http://www.w3.org/2000/svg">
<path d="M62 25.557C38.75 25.75 33.5728 44.1308 42.7621 58.2845C41.2128 59.867 40.2569 62.1319 42.625 64.5C46.5 68.375 50.375 68.375 52.2767 72.3517H71.7233C73.625 68.375 77.5 68.375 81.375 64.5C83.7431 62.1319 82.7872 59.867 81.2379 58.2845C90.4272 44.1311 85.25 25.75 62 25.557ZM51.7928 50.0298C51.8961 50.029 52.0015 50.0314 52.1091 50.037C58.9882 50.3863 62 64.5 49.4862 62.4116C46.9645 61.9907 45.283 50.069 51.7928 50.0298ZM72.2072 50.0298C78.7172 50.069 77.0355 61.9907 74.5138 62.4116C62 64.5 65.0118 50.3863 71.8909 50.0366C71.9985 50.0312 72.1039 50.0288 72.2072 50.0293V50.0298ZM7.75 52.875C9.54364 74.3294 23.365 95.3896 45.6821 110.224C50.0316 108.468 54.3445 106.513 57.8942 104.442C43.6553 95.4363 25.4149 79.8704 7.75 52.875ZM116.25 52.875C86.9938 97.584 56.1543 110.951 44.5402 115.068C45.3097 116.37 45.9926 117.727 46.6499 119.048C47.5891 120.934 48.4859 122.741 49.3585 124.13C53.6576 122.725 57.8776 121.089 62 119.228L62.0407 119.246C62.8222 118.876 63.6014 118.5 64.3783 118.12C94.8135 103.556 114.108 78.496 116.25 52.875ZM62 59.5896L66.8617 69.3135L62 66.2747L57.1383 69.3135L62 59.5896ZM46.1115 73.421L49.9284 85.7827C49.9284 85.7827 57.5011 91.818 62 91.818C66.4989 91.818 74.0716 85.7827 74.0716 85.7827L77.8885 73.4212L71.3286 78.0799L69.3758 82.015C69.3758 82.015 64.7488 85.7028 62 85.7028C59.2512 85.7028 54.6242 82.015 54.6242 82.015L52.6714 78.0799L46.1115 73.421ZM31.5842 110.47C31.3924 110.465 31.2006 110.467 31.009 110.476L31.2163 114.83C32.7566 114.757 33.8353 115.416 35.1179 116.923C36.401 118.43 37.6173 120.727 38.8089 123.12C39.9999 125.514 41.1598 127.993 42.7134 130.011C44.267 132.027 46.6373 133.751 49.4871 133.374L48.9156 129.053C47.9241 129.184 47.2735 128.787 46.167 127.35C45.0602 125.913 43.9207 123.606 42.7115 121.177C41.5025 118.748 40.2177 116.187 38.4383 114.097C36.7701 112.138 34.4284 110.54 31.5842 110.47ZM92.4158 110.47C89.5714 110.54 87.2299 112.137 85.5619 114.097C83.7823 116.187 82.4975 118.748 81.2885 121.177C80.0793 123.606 78.9398 125.913 77.833 127.35C76.7262 128.787 76.0759 129.184 75.0842 129.053L74.5129 133.374C77.3627 133.751 79.733 132.027 81.2866 130.011C82.8402 127.993 84.0001 125.514 85.1914 123.12C86.3827 120.727 87.5987 118.43 88.8818 116.923C90.1647 115.416 91.2432 114.757 92.7837 114.83L92.991 110.476C92.7995 110.467 92.6076 110.465 92.4158 110.47ZM78.8708 114.855C75.4874 117.278 71.5737 119.437 67.3853 121.51C69.7769 122.457 72.1968 123.33 74.6415 124.13C75.5141 122.741 76.4109 120.934 77.3501 119.048C78.0074 117.727 78.6904 116.37 79.4595 115.068C79.2731 115.002 79.0672 114.926 78.871 114.855H78.8708ZM32.4173 120.515L25.716 123.022L27.6302 130.717L36.4516 127.882C36.1082 127.2 35.7711 126.514 35.4328 125.833C34.4524 123.864 33.4543 121.968 32.4173 120.515ZM91.5827 120.515C90.5457 121.968 89.5476 123.864 88.5675 125.833C88.2287 126.514 87.8918 127.2 87.5484 127.882L96.3698 130.717L98.284 123.022L91.5827 120.515ZM18.9563 123.458C18.8492 123.46 18.7424 123.47 18.6366 123.487C18.5362 123.503 18.4376 123.528 18.3418 123.563C15.546 124.58 12.2617 127.932 13.099 130.786C13.8425 133.323 17.864 134.022 20.4837 133.672C21.4108 133.549 22.5217 132.762 23.4467 131.956L21.4791 124.049C20.6949 123.738 19.732 123.437 18.9563 123.458ZM105.044 123.458C104.268 123.437 103.305 123.738 102.521 124.049L100.553 131.956C101.478 132.762 102.589 133.549 103.516 133.672C106.136 134.022 110.158 133.323 110.901 130.786C111.738 127.932 108.454 124.58 105.658 123.563C105.562 123.529 105.464 123.503 105.363 123.487C105.258 123.47 105.151 123.46 105.044 123.458Z" fill="white"/>
<path d="M138.16 138.688C137.093 138.688 136.56 138.155 136.56 137.088V126.912C136.56 126.101 136.773 125.461 137.2 124.992L146.672 115.52C147.184 115.051 147.44 114.368 147.44 113.472V44.288C147.44 43.2213 147.973 42.688 149.04 42.688H167.152C168.219 42.688 168.752 43.2213 168.752 44.288V122.432C168.752 122.816 168.709 123.179 168.624 123.52C168.581 123.819 168.389 124.139 168.048 124.48L154.8 137.728C154.16 138.368 153.52 138.688 152.88 138.688H138.16ZM200.503 128C199.522 128 198.668 127.637 197.943 126.912L185.143 114.112C184.418 113.429 184.055 112.576 184.055 111.552V59.072C184.055 58.0907 184.418 57.2373 185.143 56.512L197.943 43.712C198.668 43.0293 199.522 42.688 200.503 42.688H225.655C226.679 42.688 227.532 43.0293 228.215 43.712L241.015 56.512C241.74 57.2373 242.103 58.0907 242.103 59.072V111.552C242.103 112.576 241.74 113.429 241.015 114.112L228.215 126.912C227.532 127.637 226.679 128 225.655 128H200.503ZM208.055 110.912H218.103C219.895 110.912 220.791 109.717 220.791 107.328V63.36C220.791 60.928 219.895 59.712 218.103 59.712H208.055C206.306 59.712 205.431 60.928 205.431 63.36V107.328C205.431 109.717 206.306 110.912 208.055 110.912ZM259.03 128C257.963 128 257.43 127.467 257.43 126.4V44.288C257.43 43.2213 257.963 42.688 259.03 42.688H295.382C296.406 42.688 297.259 43.0293 297.942 43.712L310.742 56.512C311.467 57.2373 311.83 58.0907 311.83 59.072V126.4C311.83 127.467 311.297 128 310.23 128H292.118C291.051 128 290.518 127.467 290.518 126.4V59.712H278.742V126.4C278.742 127.467 278.209 128 277.142 128H259.03ZM328.78 128C327.713 128 327.18 127.467 327.18 126.4V44.288C327.18 43.2213 327.713 42.688 328.78 42.688H373.388C374.455 42.688 374.988 43.2213 374.988 44.288V58.112C374.988 59.1787 374.455 59.712 373.388 59.712H348.492V77.888H371.212C372.279 77.888 372.812 78.4213 372.812 79.488V91.2C372.812 92.2667 372.279 92.8 371.212 92.8H348.492V110.912H373.388C374.455 110.912 374.988 111.445 374.988 112.512V126.4C374.988 127.467 374.455 128 373.388 128H328.78ZM411.832 128C410.765 128 410.232 127.467 410.232 126.4V44.288C410.232 43.2213 410.765 42.688 411.832 42.688H450.872C451.896 42.688 452.749 43.0293 453.432 43.712L466.232 56.512C466.957 57.2373 467.32 58.0907 467.32 59.072V111.552C467.32 112.576 466.957 113.429 466.232 114.112L453.432 126.912C452.749 127.637 451.896 128 450.872 128H411.832ZM431.608 110.912H443.32C445.112 110.912 446.008 109.717 446.008 107.328V63.36C446.008 60.928 445.112 59.712 443.32 59.712H431.608V110.912ZM483.78 128C482.713 128 482.18 127.467 482.18 126.4V44.288C482.18 43.2213 482.713 42.688 483.78 42.688H528.388C529.455 42.688 529.988 43.2213 529.988 44.288V58.112C529.988 59.1787 529.455 59.712 528.388 59.712H503.492V77.888H526.212C527.279 77.888 527.812 78.4213 527.812 79.488V91.2C527.812 92.2667 527.279 92.8 526.212 92.8H503.492V110.912H528.388C529.455 110.912 529.988 111.445 529.988 112.512V126.4C529.988 127.467 529.455 128 528.388 128H483.78ZM546.905 128C545.838 128 545.305 127.467 545.305 126.4V44.288C545.305 43.2213 545.838 42.688 546.905 42.688H582.297C583.321 42.688 584.174 43.0293 584.857 43.712L597.657 56.512C598.382 57.2373 598.745 58.0907 598.745 59.072V81.152C598.745 82.176 598.382 83.0293 597.657 83.712L584.857 96.512C584.174 97.2373 583.321 97.6 582.297 97.6H566.617V126.4C566.617 127.467 566.084 128 565.017 128H546.905ZM571.417 80.192C574.958 80.192 577.369 79.488 578.649 78.08C579.972 76.672 580.633 74.0053 580.633 70.08C580.633 66.1547 579.972 63.488 578.649 62.08C577.369 60.672 574.958 59.968 571.417 59.968C567.918 59.968 565.508 60.672 564.185 62.08C562.905 63.488 562.265 66.1547 562.265 70.08C562.265 74.0053 562.905 76.672 564.185 78.08C565.508 79.488 567.918 80.192 571.417 80.192Z" fill="white"/>
</svg>
